# generated from PmQm by Jehee Lee
:FULLY-SPECIFIED
:DEGREES
291
root 9.76804 3.53504 4.03711 -106.052 85.0481 -29.5401
RightUpLeg -12.2621 0.514548 -0.171691
RightLeg -5.9034 -24.7528 4.28558
RightFoot 14.2526 -4.71653 19.2252
RightToes 4.07452e-010 -1.59028e-015 9.93923e-017
Spine -36.267 0.883988 6.00439
Spine1 30.2777 0.678085 -4.9168
HEad -40.7933 11.5667 5.72235
LeftShoulder1 9.93923e-017 -0 1.22299e-017
LeftArm 29.2742 39.9383 -66.6241
LeftForeArm 3.51225 -9.86636 -5.87393
LeftHand 1.02652 10.3154 -15.0819
RightShoulder 1.98785e-016 -4.96962e-017 1.55301e-017
RightArm 23.1264 -49.5683 63.7968
RightForeArm -13.6474 12.1081 3.41274
RightHand 2.1842 -16.7055 -6.80506
LeftUpLeg -18.4788 1.95001 6.9139
LeftLeg 2.74379 17.2231 3.36311
LeftFoot 10.0032 4.25995 -20.2023
LeftToes 1.53707e-010 -1.11459e-010 1.58109e-011
292
root 9.78763 3.53576 4.14786 -100.969 85.1078 -24.411
RightUpLeg -11.7865 0.11227 -0.330337
RightLeg -6.24682 -29.1583 4.83973
RightFoot 14.6912 -4.94065 19.7989
RightToes 4.07452e-010 -1.59028e-015 9.93923e-017
Spine -36.2177 0.825804 5.57608
Spine1 30.0861 0.541981 -4.43693
HEad -40.9289 11.2545 5.86109
LeftShoulder1 9.93923e-017 -0 1.22299e-017
LeftArm 24.9202 40.1583 -64.7527
LeftForeArm 3.19704 -8.70101 -6.24459
LeftHand 1.07824 9.84942 -12.7609
RightShoulder 1.98785e-016 -4.96962e-017 1.55301e-017
RightArm 13.8968 -49.6877 62.2538
RightForeArm -9.41144 10.3239 4.33622
RightHand 2.08214 -16.4153 -6.20111
LeftUpLeg -18.1857 2.52339 7.55544
LeftLeg 2.81175 19.3206 3.25727
LeftFoot 10.4757 4.44713 -20.6514
LeftToes 1.53707e-010 -1.11459e-010 1.58109e-011
293
root 9.81031 3.56266 4.20584 -95.8022 85.3023 -19.119
RightUpLeg -11.284 -0.495462 -0.684172
RightLeg -6.5268 -32.7106 5.45511
RightFoot 15.2683 -5.0187 19.6889
RightToes 4.07452e-010 -1.59028e-015 9.93923e-017
Spine -36.2765 1.01403 5.78632
Spine1 30.1479 0.816465 -4.81543
HEad -41.1806 11.0615 6.00858
LeftShoulder1 9.93923e-017 -0 1.22299e-017
LeftArm 19.8926 40.2064 -62.7132
LeftForeArm 4.47027 -7.25552 -6.46618
LeftHand 1.11628 9.47644 -10.525
RightShoulder 1.98785e-016 -4.96962e-017 1.55301e-017
RightArm 6.82827 -50.0676 60.7725
RightForeArm -7.87147 9.33784 4.38342
RightHand 2.26741 -17.69 -6.0879
LeftUpLeg -17.7693 2.79526 7.84828
LeftLeg 2.87483 21.0659 3.27753
LeftFoot 10.8928 4.57779 -20.8765
LeftToes 1.53707e-010 -1.11459e-010 1.58109e-011
294
root 9.83524 3.61179 4.21628 -89.2133 85.6337 -12.3649
RightUpLeg -10.9541 -1.25106 -1.18671
RightLeg -6.48282 -34.3047 5.92506
RightFoot 15.7347 -4.98106 19.2197
RightToes 4.07452e-010 -1.59028e-015 9.93923e-017
Spine -36.5064 1.4126 6.50472
Spine1 30.5179 1.43369 -5.87058
HEad -41.4102 11.1898 6.16491
LeftShoulder1 9.93923e-017 -0 1.22299e-017
LeftArm 14.3589 40.2616 -60.7366
LeftForeArm 6.5258 -5.54134 -6.47347
LeftHand 1.20532 10.2869 -8.7766
RightShoulder 1.98785e-016 -4.96962e-017 1.55301e-017
RightArm 4.86634 -50.4302 59.8693
RightForeArm -11.5061 10.2333 3.26377
RightHand 2.78544 -20.1587 -7.21949
LeftUpLeg -17.2561 2.66054 7.76163
LeftLeg 2.81493 22.4978 3.46101
LeftFoot 11.0951 4.63351 -20.9481
LeftToes 1.53707e-010 -1.11459e-010 1.58109e-011
295
root 9.85975 3.63768 4.23604 -82.5886 85.8477 -5.63657
RightUpLeg -10.913 -1.61498 -1.44361
RightLeg -6.27111 -34.2944 6.01649
RightFoot 16.0687 -4.98418 19.0057
RightToes 4.07452e-010 -1.59028e-015 9.93923e-017
Spine -36.7467 1.6864 6.81644
Spine1 30.9603 1.85201 -6.41786
HEad -41.4639 11.509 6.32433
LeftShoulder1 9.93923e-017 -0 1.22299e-017
LeftArm 10.145 40.2156 -59.3407
LeftForeArm 7.43619 -4.20336 -6.28986
LeftHand 1.39482 12.002 -6.91452
RightShoulder 1.98785e-016 -4.96962e-017 1.55301e-017
RightArm 5.16927 -50.5372 59.4621
RightForeArm -16.6154 11.7641 1.71459
RightHand 3.39319 -22.062 -9.30061
LeftUpLeg -16.9786 2.4598 7.60759
LeftLeg 2.81107 23.0759 3.68411
LeftFoot 11.1061 4.65696 -21.0429
LeftToes 1.53707e-010 -1.11459e-010 1.58109e-011
296
root 9.87894 3.61863 4.28601 -78.9051 85.822 -1.95706
RightUpLeg -11.0763 -1.33241 -1.262
RightLeg -6.21349 -33.6524 5.80725
RightFoot 16.325 -5.08859 19.2238
RightToes 4.07452e-010 -1.59028e-015 9.93923e-017
Spine -36.815 1.67785 6.46356
Spine1 31.188 1.82368 -6.0834
HEad -41.3951 11.8376 6.40326
LeftShoulder1 9.93923e-017 -0 1.22299e-017
LeftArm 7.91417 40.0215 -58.6996
LeftForeArm 6.95124 -3.52227 -6.13081
LeftHand 1.60836 13.2314 -4.77919
RightShoulder 1.98785e-016 -4.96962e-017 1.55301e-017
RightArm 4.76219 -50.4452 59.225
RightForeArm -19.5832 12.655 0.573063
RightHand 3.79142 -22.6415 -11.2297
LeftUpLeg -17.1308 2.49537 7.62239
LeftLeg 3.02788 22.45 3.815
LeftFoot 11.0458 4.66869 -21.1483
LeftToes 1.53707e-010 -1.11459e-010 1.58109e-011
297
root 9.88576 3.5894 4.3322 -79.4264 85.7199 -2.48413
RightUpLeg -11.2012 -0.871292 -0.950106
RightLeg -6.26275 -32.8394 5.56027
RightFoot 16.3942 -5.20407 19.6052
RightToes 4.07452e-010 -1.59028e-015 9.93923e-017
Spine -36.6244 1.49618 5.93126
Spine1 31.0679 1.56713 -5.49401
HEad -41.4167 12.2192 6.47374
LeftShoulder1 9.93923e-017 -0 1.22299e-017
LeftArm 7.01056 39.9145 -58.4778
LeftForeArm 6.22509 -3.27526 -6.07277
LeftHand 1.73208 13.3793 -2.85306
RightShoulder 1.98785e-016 -4.96962e-017 1.55301e-017
RightArm 3.80751 -50.3853 59.0348
RightForeArm -20.4818 12.9058 0.0811035
RightHand 3.93749 -22.5185 -12.3599
LeftUpLeg -17.398 2.65385 7.69788
LeftLeg 3.23565 21.2075 3.77351
LeftFoot 10.9552 4.6501 -21.1453
LeftToes 1.53707e-010 -1.11459e-010 1.58109e-011
298
root 9.87887 3.58566 4.3353 -81.6507 85.6892 -4.64178
RightUpLeg -11.1836 -0.731391 -0.844871
RightLeg -6.21197 -31.896 5.44748
RightFoot 16.189 -5.24887 19.9125
RightToes 4.07452e-010 -1.59028e-015 9.93923e-017
Spine -36.3389 1.38447 5.78866
Spine1 30.786 1.44816 -5.35024
HEad -41.5091 12.6327 6.51147
LeftShoulder1 9.93923e-017 -0 1.22299e-017
LeftArm 6.60834 40.007 -58.3693
LeftForeArm 6.60432 -3.16472 -6.00925
LeftHand 1.74577 13.0585 -1.90582
RightShoulder 1.98785e-016 -4.96962e-017 1.55301e-017
RightArm 3.56513 -50.4541 58.9568
RightForeArm -20.756 12.9836 -0.0629861
RightHand 3.95327 -22.35 -12.7077
LeftUpLeg -17.4195 2.69137 7.67063
LeftLeg 3.19906 20.4047 3.65297
LeftFoot 10.8505 4.61537 -21.0825
LeftToes 1.53707e-010 -1.11459e-010 1.58109e-011
299
root 9.86619 3.5976 4.30309 -84.4556 85.693 -7.37371
RightUpLeg -11.0762 -0.825809 -0.9011
RightLeg -6.1609 -31.2872 5.47197
RightFoot 15.8831 -5.25393 20.1464
RightToes 4.07452e-010 -1.59028e-015 9.93923e-017
Spine -36.2129 1.34341 5.90715
Spine1 30.6422 1.42997 -5.48437
HEad -41.6307 12.9317 6.53712
LeftShoulder1 9.93923e-017 -0 1.22299e-017
LeftArm 6.33512 40.1025 -58.4082
LeftForeArm 8.47812 -3.09106 -5.88862
LeftHand 1.68649 12.7386 -2.27581
RightShoulder 1.98785e-016 -4.96962e-017 1.55301e-017
RightArm 3.98724 -50.5324 58.9634
RightForeArm -20.5929 12.9802 0.01098360002
RightHand 3.89492 -22.2223 -12.5008
LeftUpLeg -17.2717 2.64299 7.61461
LeftLeg 3.01489 20.3707 3.54593
LeftFoot 10.8345 4.60886 -21.0673
LeftToes 1.53707e-010 -1.11459e-010 1.58109e-011
300
root 9.85815 3.6062 4.26545 -88.6354 85.6552 -11.5353
RightUpLeg -10.9159 -0.90506 -0.962537
RightLeg -6.29795 -31.5095 5.58745
RightFoot 15.7336 -5.2841 20.367
RightToes 4.07452e-010 -1.59028e-015 9.93923e-017
Spine -36.3039 1.21932 5.85821
Spine1 30.7263 1.27996 -5.40852
HEad -41.7926 13.0235 6.57654
LeftShoulder1 9.93923e-017 -0 1.22299e-017
LeftArm 6.38939 40.0611 -58.6976
LeftForeArm 10.6313 -3.14382 -5.80746
LeftHand 1.57541 12.2347 -3.35488
RightShoulder 1.98785e-016 -4.96962e-017 1.55301e-017
RightArm 4.58075 -50.5282 58.9259
RightForeArm -19.9054 12.8109 0.326763
RightHand 3.77946 -22.0513 -11.9616
LeftUpLeg -17.1655 2.66814 7.64884
LeftLeg 2.86741 20.8251 3.43342
LeftFoot 10.9802 4.63843 -21.071
LeftToes 1.53707e-010 -1.11459e-010 1.58109e-011
301
root 9.85968 3.61475 4.22734 -93.2915 85.6196 -16.1811
RightUpLeg -10.724 -1.04625 -1.08503
RightLeg -6.48982 -32.2218 5.75707
RightFoot 15.7892 -5.33734 20.5277
RightToes 4.07452e-010 -1.59028e-015 9.93923e-017
Spine -36.4354 1.0546 5.69353
Spine1 30.8729 1.07317 -5.21767
HEad -41.9931 12.9811 6.63647
LeftShoulder1 9.93923e-017 -0 1.22299e-017
LeftArm 6.95466 39.9865 -59.1345
LeftForeArm 11.4906 -3.35733 -5.85129
LeftHand 1.47147 11.5857 -4.1094
RightShoulder 1.98785e-016 -4.96962e-017 1.55301e-017
RightArm 5.42876 -50.4937 58.8271
RightForeArm -19.1896 12.5525 0.794661
RightHand 3.63991 -21.8967 -11.2188
LeftUpLeg -17.0411 2.72273 7.69164
LeftLeg 2.72316 21.7314 3.32109
LeftFoot 11.2434 4.67194 -20.9893
LeftToes 1.53707e-010 -1.11459e-010 1.58109e-011
302
root 9.8696 3.61925 4.18324 -96.3532 85.6428 -19.2064
RightUpLeg -10.5995 -1.29139 -1.29565
RightLeg -6.51241 -32.7782 5.86695
RightFoot 15.9574 -5.3786 20.561
RightToes 4.07452e-010 -1.59028e-015 9.93923e-017
Spine -36.3964 1.00042 5.70496
Spine1 30.8546 1.01259 -5.21924
HEad -42.1763 12.9343 6.71635
LeftShoulder1 9.93923e-017 -0 1.22299e-017
LeftArm 7.55855 39.9695 -59.5183
LeftForeArm 11.1441 -3.56592 -5.94185
LeftHand 1.43411 11.274 -4.23175
RightShoulder 1.98785e-016 -4.96962e-017 1.55301e-017
RightArm 6.37856 -50.4688 58.7755
RightForeArm -18.3813 12.2489 1.31451
RightHand 3.49532 -21.7504 -10.4103
LeftUpLeg -16.8239 2.69644 7.64599
LeftLeg 2.495 23.0814 3.26818
LeftFoot 11.5788 4.69075 -20.783
LeftToes 1.53707e-010 -1.11459e-010 1.58109e-011
303
root 9.88366 3.60403 4.14514 -97.4691 85.6351 -20.3232
RightUpLeg -10.6249 -1.36315 -1.38834
RightLeg -6.46772 -33.1146 5.82636
RightFoot 16.1861 -5.40568 20.4975
RightToes 4.07452e-010 -1.59028e-015 9.93923e-017
Spine -36.2006 1.04202 5.89493
Spine1 30.6498 1.04882 -5.34365
HEad -42.303 12.9466 6.81844
LeftShoulder1 9.93923e-017 -0 1.22299e-017
LeftArm 7.55762 39.9576 -59.7413
LeftForeArm 10.8833 -3.59201 -5.96226
LeftHand 1.44933 11.409 -4.2051
RightShoulder 1.98785e-016 -4.96962e-017 1.55301e-017
RightArm 6.77808 -50.4139 58.8054
RightForeArm -16.8965 11.8314 1.8426
RightHand 3.36312 -21.4713 -9.85175
LeftUpLeg -16.7136 2.67219 7.61894
LeftLeg 2.33084 24.324 3.30154
LeftFoot 11.9414 4.70098 -20.5219
LeftToes 1.53707e-010 -1.11459e-010 1.58109e-011
304
root 9.89554 3.58175 4.12664 -98.6057 85.5117 -21.4993
RightUpLeg -10.6779 -1.18939 -1.28227
RightLeg -6.53909 -33.4065 5.74192
RightFoot 16.3852 -5.42329 20.4209
RightToes 4.07452e-010 -1.59028e-015 9.93923e-017
Spine -36.0256 1.02111 6.02131
Spine1 30.4509 0.985448 -5.34989
HEad -42.4083 13.0267 6.91895
LeftShoulder1 9.93923e-017 -0 1.22299e-017
LeftArm 7.15018 39.9362 -59.8093
LeftForeArm 10.9872 -3.50197 -5.92768
LeftHand 1.46471 11.61 -4.34749
RightShoulder 1.98785e-016 -4.96962e-017 1.55301e-017
RightArm 6.57526 -50.3432 58.8058
RightForeArm -15.2657 11.4386 2.21511
RightHand 3.2832 -21.1179 -9.75581
LeftUpLeg -16.8151 2.75611 7.71078
LeftLeg 2.39277 24.8379 3.36977
LeftFoot 12.1985 4.70422 -20.3239
LeftToes 1.53707e-010 -1.11459e-010 1.58109e-011
305
root 9.89979 3.58378 4.12017 -100.868 85.3903 -23.7098
RightUpLeg -10.5656 -1.14824 -1.22598
RightLeg -6.59978 -33.4547 5.7722
RightFoot 16.3955 -5.41261 20.3742
RightToes 4.07452e-010 -1.59028e-015 9.93923e-017
Spine -35.9112 0.897732 5.98116
Spine1 30.3772 0.823366 -5.24523
HEad -42.5224 13.1799 6.95413
LeftShoulder1 9.93923e-017 -0 1.22299e-017
LeftArm 6.98524 39.9775 -59.7844
LeftForeArm 10.8321 -3.46694 -5.9231
LeftHand 1.46363 11.6399 -4.47361
RightShoulder 1.98785e-016 -4.96962e-017 1.55301e-017
RightArm 6.42779 -50.34 58.6847
RightForeArm -14.852 11.3804 2.22591
RightHand 3.27159 -20.9839 -9.85571
LeftUpLeg -16.8489 2.84219 7.79646
LeftLeg 2.51964 24.7422 3.38482
LeftFoot 12.2479 4.69574 -20.2476
LeftToes 1.53707e-010 -1.11459e-010 1.58109e-011
